<?xml version="1.0" encoding="UTF-8" standalone="no"?>
<!-- Generator: Adobe Illustrator 18.1.0, SVG Export Plug-In . SVG Version: 6.00 Build 0)  -->

<svg
   xmlns:dc="http://purl.org/dc/elements/1.1/"
   xmlns:cc="http://creativecommons.org/ns#"
   xmlns:rdf="http://www.w3.org/1999/02/22-rdf-syntax-ns#"
   xmlns:svg="http://www.w3.org/2000/svg"
   xmlns="http://www.w3.org/2000/svg"
   xmlns:xlink="http://www.w3.org/1999/xlink"
   xmlns:sodipodi="http://sodipodi.sourceforge.net/DTD/sodipodi-0.dtd"
   xmlns:inkscape="http://www.inkscape.org/namespaces/inkscape"
   version="1.0"
   id="Layer_1"
   x="0px"
   y="0px"
   width="15.791381"
   height="8.5172348"
   viewBox="0 0 15.791381 8.45"
   enable-background="new 0 0 16 16"
   xml:space="preserve"
   inkscape:version="0.91 r13725"
   sodipodi:docname="infobox-map.svg"><metadata
     id="metadata27"><rdf:RDF><cc:Work
         rdf:about=""><dc:format>image/svg+xml</dc:format><dc:type
           rdf:resource="http://purl.org/dc/dcmitype/StillImage" /></cc:Work></rdf:RDF></metadata><defs
     id="defs25" /><sodipodi:namedview
     pagecolor="#ffffff"
     bordercolor="#666666"
     borderopacity="1"
     objecttolerance="10"
     gridtolerance="10"
     guidetolerance="10"
     inkscape:pageopacity="0"
     inkscape:pageshadow="2"
     inkscape:window-width="472"
     inkscape:window-height="440"
     id="namedview23"
     showgrid="false"
     inkscape:zoom="14.75"
     inkscape:cx="7.9025814"
     inkscape:cy="4.2548005"
     inkscape:window-x="0"
     inkscape:window-y="0"
     inkscape:window-maximized="0"
     inkscape:current-layer="Layer_1" /><pattern
     y="-181.03"
     width="34.259"
     height="34.259"
     patternUnits="userSpaceOnUse"
     id="New_Pattern_Swatch_2"
     viewBox="0 -34.259 34.259 10"
     overflow="visible"><g
       id="g4"><polygon
         fill="none"
         points="0,0 34.259,0 34.259,-34.259 0,-34.259   "
         id="polygon6" /><polygon
         fill="#4AFFFF"
         points="34.259,0 0,0 0,-34.259 34.259,-34.259   "
         id="polygon8" /></g></pattern><g
     id="g10"
     transform="translate(-0.09741865,-3.7375647)"><pattern
       id="SVGID_1_"
       xlink:href="#New_Pattern_Swatch_2"
       patternTransform="matrix(1 0 0 1 68.5179 0)" /><polygon
       stroke-miterlimit="10"
       points="14.272,5.54 14.38,5.54 14.497,5.54 14.615,5.54 14.634,5.467 14.663,5.433 14.693,5.446 14.712,5.446 14.732,5.426 14.751,5.413 14.761,5.42 14.771,5.433 14.781,5.446 14.791,5.44 14.8,5.426 14.791,5.406 14.81,5.386 14.82,5.386 14.83,5.386 14.839,5.379 14.839,5.373 14.83,5.352 14.83,5.332 14.859,5.299 14.898,5.272 14.908,5.258 14.908,5.238 14.927,5.211 14.947,5.197 14.947,5.184 14.937,5.163 14.937,5.136 14.947,5.102 14.957,5.061 14.976,5.02 15.006,4.986 15.015,4.931 15.025,4.876 15.055,4.828 15.103,4.766 15.123,4.732 15.162,4.669 15.201,4.621 15.211,4.6 15.231,4.579 15.25,4.586 15.279,4.593 15.279,4.627 15.279,4.655 15.289,4.669 15.309,4.676 15.328,4.683 15.338,4.683 15.387,4.662 15.436,4.648 15.465,4.634 15.465,4.627 15.485,4.621 15.504,4.627 15.543,4.655 15.583,4.697 15.622,4.732 15.622,4.787 15.622,4.849 15.622,4.918 15.622,4.959 15.622,5.027 15.622,5.075 15.622,5.143 15.622,5.177 15.631,5.184 15.622,5.197 15.622,5.204 15.622,5.211 15.631,5.218 15.631,5.231 15.622,5.238 15.622,5.245 15.622,5.265 15.622,5.272 15.631,5.278 15.641,5.278 15.651,5.285 15.661,5.299 15.68,5.305 15.69,5.305 15.71,5.305 15.719,5.312 15.729,5.326 15.719,5.339 15.71,5.346 15.71,5.352 15.7,5.359 15.71,5.373 15.71,5.386 15.719,5.399 15.719,5.413 15.71,5.426 15.71,5.44 15.719,5.453 15.729,5.467 15.739,5.48 15.749,5.487 15.759,5.48 15.768,5.473 15.768,5.467 15.778,5.473 15.788,5.473 15.807,5.48 15.798,5.493 15.807,5.513 15.817,5.547 15.807,5.567 15.807,5.587 15.837,5.593 15.837,5.6 15.837,5.613 15.788,5.666 15.739,5.66 15.71,5.68 15.69,5.68 15.671,5.706 15.661,5.713 15.641,5.713 15.622,5.706 15.612,5.706 15.592,5.752 15.573,5.752 15.573,5.766 15.563,5.772 15.553,5.779 15.543,5.759 15.534,5.739 15.524,5.733 15.514,5.733 15.495,5.733 15.485,5.746 15.465,5.759 15.455,5.746 15.446,5.733 15.436,5.759 15.426,5.779 15.426,5.812 15.426,5.825 15.407,5.825 15.397,5.805 15.367,5.799 15.348,5.799 15.348,5.779 15.377,5.759 15.367,5.752 15.358,5.759 15.348,5.752 15.358,5.733 15.358,5.713 15.348,5.719 15.338,5.739 15.309,5.759 15.309,5.792 15.279,5.858 15.279,5.891 15.26,5.91 15.231,5.93 15.201,5.923 15.172,5.943 15.162,5.963 15.152,5.963 15.143,5.943 15.143,5.93 15.133,5.969 15.123,5.969 15.123,5.943 15.113,5.93 15.103,5.943 15.094,5.982 15.084,5.976 15.084,5.963 15.074,5.963 15.074,5.976 15.084,6.002 15.074,6.008 15.064,6.002 15.055,5.995 15.045,6.002 15.025,6.008 15.025,5.995 15.035,5.982 15.006,5.989 14.976,6.015 14.947,6.048 14.957,6.054 14.967,6.067 14.927,6.119 14.879,6.171 14.849,6.249 14.839,6.262 14.82,6.275 14.81,6.32 14.8,6.365 14.81,6.384 14.81,6.403 14.82,6.423 14.83,6.423 14.849,6.423 14.859,6.429 14.859,6.442 14.839,6.442 14.82,6.461 14.8,6.467 14.791,6.487 14.771,6.512 14.742,6.55 14.751,6.557 14.8,6.57 14.82,6.582 14.859,6.652 14.849,6.659 14.849,6.671 14.879,6.69 14.879,6.741 14.908,6.76 14.947,6.766 14.986,6.754 15.025,6.735 15.025,6.716 14.996,6.678 14.996,6.659 14.976,6.646 14.967,6.659 14.957,6.64 14.957,6.633 14.967,6.633 14.976,6.633 14.996,6.64 15.025,6.684 15.035,6.741 15.045,6.773 15.035,6.785 15.025,6.785 15.006,6.785 14.918,6.804 14.888,6.823 14.839,6.836 14.839,6.829 14.849,6.81 14.839,6.773 14.83,6.773 14.761,6.836 14.732,6.836 14.703,6.854 14.703,6.842 14.693,6.798 14.712,6.76 14.703,6.76 14.673,6.785 14.663,6.773 14.663,6.754 14.654,6.747 14.644,6.741 14.654,6.779 14.634,6.804 14.634,6.867 14.605,6.892 14.546,6.911 14.497,6.911 14.458,6.911 14.409,6.924 14.38,6.917 14.351,6.93 14.253,6.936 14.233,6.93 14.204,6.955 14.155,6.967 14.047,7.024 14.028,7.043 13.999,7.074 13.979,7.092 13.959,7.099 13.95,7.111 13.94,7.117 13.95,7.086 13.959,7.061 13.969,7.011 13.969,6.967 13.959,6.955 13.94,6.942 13.959,6.98 13.959,7.03 13.959,7.061 13.93,7.117 13.92,7.13 13.901,7.142 13.891,7.148 13.881,7.155 13.871,7.173 13.862,7.198 13.871,7.223 13.92,7.235 13.94,7.229 13.94,7.248 13.95,7.272 13.94,7.297 13.94,7.328 13.93,7.365 13.92,7.414 13.911,7.463 13.911,7.451 13.92,7.39 13.911,7.396 13.901,7.408 13.891,7.488 13.871,7.525 13.842,7.555 13.823,7.549 13.832,7.567 13.823,7.58 13.823,7.604 13.803,7.622 13.793,7.616 13.783,7.628 13.774,7.641 13.774,7.653 13.764,7.665 13.725,7.738 13.686,7.762 13.676,7.756 13.686,7.726 13.695,7.689 13.676,7.677 13.647,7.665 13.627,7.665 13.598,7.641 13.568,7.622 13.519,7.567 13.519,7.555 13.519,7.531 13.539,7.488 13.549,7.463 13.568,7.451 13.627,7.433 13.637,7.414 13.647,7.396 13.617,7.427 13.578,7.439 13.559,7.445 13.539,7.463 13.529,7.488 13.51,7.512 13.51,7.531 13.51,7.549 13.51,7.574 13.519,7.598 13.549,7.641 13.559,7.708 13.578,7.75 13.617,7.805 13.637,7.817 13.647,7.835 13.627,7.871 13.617,7.883 13.637,7.877 13.647,7.889 13.656,7.913 13.656,7.937 13.647,7.955 13.647,7.961 13.647,7.943 13.637,7.937 13.637,7.949 13.627,7.955 13.627,7.985 13.617,7.997 13.607,8.003 13.588,8.045 13.568,8.063 13.5,8.213 13.51,8.236 13.49,8.248 13.471,8.254 13.461,8.266 13.441,8.284 13.431,8.325 13.412,8.379 13.402,8.355 13.392,8.337 13.402,8.296 13.422,8.219 13.451,8.171 13.471,8.147 13.49,8.105 13.461,8.093 13.431,8.099 13.441,8.075 13.451,8.057 13.431,8.039 13.422,8.033 13.412,8.027 13.422,8.015 13.431,7.997 13.431,7.979 13.431,7.961 13.422,7.961 13.412,7.979 13.402,7.985 13.392,7.973 13.392,7.985 13.383,7.991 13.363,7.979 13.334,7.961 13.324,7.937 13.314,7.913 13.324,7.877 13.343,7.871 13.363,7.877 13.392,7.877 13.392,7.871 13.383,7.871 13.343,7.841 13.334,7.823 13.314,7.817 13.314,7.835 13.304,7.841 13.314,7.805 13.324,7.805 13.343,7.792 13.343,7.768 13.324,7.762 13.304,7.774 13.304,7.756 13.304,7.738 13.324,7.738 13.343,7.744 13.353,7.714 13.353,7.695 13.334,7.72 13.334,7.671 13.353,7.628 13.373,7.61 13.402,7.61 13.431,7.61 13.412,7.598 13.392,7.598 13.402,7.58 13.422,7.574 13.431,7.561 13.402,7.561 13.402,7.537 13.392,7.543 13.373,7.543 13.373,7.555 13.373,7.574 13.363,7.586 13.353,7.598 13.334,7.604 13.334,7.592 13.324,7.586 13.324,7.616 13.314,7.628 13.304,7.598 13.295,7.604 13.304,7.61 13.295,7.628 13.285,7.635 13.285,7.653 13.275,7.659 13.236,7.647 13.236,7.653 13.265,7.683 13.275,7.695 13.275,7.714 13.265,7.732 13.246,7.714 13.246,7.72 13.255,7.738 13.255,7.762 13.255,7.774 13.255,7.798 13.255,7.817 13.246,7.829 13.255,7.901 13.265,7.925 13.285,7.943 13.285,7.961 13.275,7.961 13.255,7.949 13.236,7.937 13.216,7.901 13.216,7.889 13.207,7.877 13.216,7.901 13.216,7.931 13.285,7.997 13.295,8.021 13.304,8.039 13.304,8.057 13.285,8.045 13.265,8.027 13.236,8.009 13.187,7.997 13.158,7.949 13.158,7.973 13.148,7.985 13.138,7.967 13.128,7.949 13.119,7.931 13.099,7.937 13.079,7.949 13.06,7.943 13.06,7.913 13.06,7.901 13.089,7.865 13.109,7.841 13.119,7.817 13.109,7.78 13.109,7.817 13.099,7.841 13.079,7.853 13.05,7.877 13.04,7.901 13.04,7.949 13.05,7.967 13.06,7.967 13.089,7.961 13.109,7.961 13.148,8.021 13.216,8.039 13.246,8.057 13.265,8.081 13.295,8.099 13.324,8.123 13.324,8.141 13.314,8.159 13.314,8.183 13.304,8.201 13.275,8.201 13.255,8.195 13.177,8.111 13.167,8.099 13.138,8.051 13.099,8.027 13.089,8.027 13.138,8.075 13.167,8.105 13.197,8.153 13.226,8.171 13.246,8.201 13.265,8.213 13.314,8.236 13.295,8.248 13.324,8.26 13.324,8.284 13.324,8.308 13.285,8.296 13.285,8.314 13.285,8.325 13.265,8.337 13.246,8.325 13.187,8.254 13.187,8.266 13.197,8.278 13.226,8.32 13.255,8.343 13.285,8.355 13.304,8.379 13.314,8.391 13.314,8.414 13.304,8.426 13.285,8.432 13.265,8.42 13.255,8.402 13.226,8.379 13.226,8.355 13.207,8.355 13.119,8.32 13.05,8.32 13.06,8.325 13.07,8.331 13.119,8.337 13.138,8.355 13.187,8.367 13.207,8.373 13.216,8.414 13.255,8.444 13.265,8.461 13.285,8.467 13.324,8.444 13.353,8.456 13.392,8.461 13.402,8.479 13.412,8.509 13.422,8.544 13.461,8.69 13.51,8.807 13.519,8.83 13.51,8.813 13.471,8.731 13.441,8.679 13.422,8.579 13.412,8.556 13.412,8.544 13.402,8.55 13.402,8.567 13.402,8.573 13.392,8.608 13.402,8.62 13.412,8.638 13.431,8.679 13.441,8.731 13.422,8.708 13.402,8.696 13.383,8.69 13.353,8.673 13.353,8.696 13.353,8.72 13.334,8.714 13.324,8.702 13.334,8.725 13.304,8.72 13.285,8.72 13.275,8.743 13.265,8.76 13.246,8.76 13.207,8.743 13.197,8.72 13.197,8.69 13.197,8.72 13.197,8.755 13.197,8.784 13.226,8.784 13.255,8.784 13.295,8.784 13.324,8.778 13.334,8.772 13.373,8.778 13.373,8.807 13.373,8.836 13.373,8.871 13.383,8.871 13.392,8.859 13.402,8.801 13.431,8.778 13.441,8.784 13.451,8.801 13.461,8.819 13.461,8.848 13.451,8.883 13.402,8.929 13.363,8.975 13.343,8.981 13.314,8.981 13.285,8.969 13.275,8.964 13.265,8.969 13.255,8.958 13.246,8.929 13.236,8.923 13.226,8.923 13.216,8.952 13.197,8.958 13.148,8.946 13.109,8.923 13.128,8.946 13.236,8.993 13.246,8.998 13.255,9.01 13.236,9.027 13.226,9.05 13.226,9.068 13.226,9.079 13.177,9.102 13.158,9.096 13.099,9.05 13.128,9.091 13.148,9.108 13.187,9.119 13.265,9.102 13.295,9.119 13.275,9.154 13.255,9.177 13.226,9.177 13.197,9.183 13.197,9.2 13.177,9.2 13.148,9.2 13.109,9.2 13.089,9.2 13.05,9.228 13.04,9.234 13.021,9.228 13.021,9.2 13.011,9.188 13.011,9.234 13.011,9.246 13.021,9.257 12.982,9.28 12.943,9.314 12.933,9.32 12.913,9.337 12.884,9.383 12.884,9.411 12.874,9.451 12.864,9.434 12.874,9.405 12.864,9.377 12.855,9.434 12.845,9.457 12.737,9.457 12.698,9.474 12.62,9.519 12.6,9.542 12.542,9.627 12.522,9.677 12.512,9.655 12.512,9.638 12.512,9.627 12.503,9.655 12.512,9.694 12.503,9.711 12.464,9.745 12.444,9.745 12.415,9.756 12.415,9.784 12.376,9.812 12.356,9.824 12.327,9.818 12.336,9.846 12.327,9.863 12.297,9.88 12.278,9.891 12.258,9.885 12.248,9.891 12.239,9.908 12.209,9.919 12.18,9.913 12.151,9.908 12.131,9.913 12.16,9.924 12.18,9.941 12.18,9.963 12.17,9.975 12.151,9.986 12.141,9.986 12.141,9.975 12.131,9.952 12.121,9.958 12.121,9.963 12.112,9.969 12.092,9.935 12.092,9.963 12.102,9.98 12.112,9.991 12.121,9.997 12.121,10.008 12.102,10.03 12.092,10.036 12.072,10.041 12.072,10.058 12.072,10.069 12.053,10.097 12.024,10.114 12.014,10.114 12.004,10.119 12.014,10.13 12.014,10.136 12.014,10.147 12.004,10.158 11.994,10.158 11.984,10.175 11.984,10.186 11.994,10.191 11.994,10.202 11.965,10.213 11.965,10.225 11.975,10.23 11.984,10.225 11.984,10.23 11.975,10.247 11.965,10.258 11.955,10.28 11.936,10.285 11.936,10.291 11.945,10.296 11.955,10.313 11.936,10.34 11.926,10.34 11.916,10.335 11.906,10.357 11.916,10.368 11.906,10.396 11.896,10.423 11.896,10.434 11.896,10.461 11.896,10.483 11.916,10.511 11.936,10.626 11.945,10.669 11.965,10.778 12.004,10.881 12.063,11.005 12.151,11.162 12.16,11.183 12.151,11.199 12.151,11.22 12.151,11.247 12.151,11.279 12.16,11.311 12.18,11.365 12.17,11.354 12.141,11.279 12.141,11.231 12.141,11.172 12.131,11.172 12.131,11.194 12.131,11.215 12.121,11.226 12.112,11.188 12.112,11.172 12.121,11.156 12.121,11.145 12.102,11.14 12.092,11.124 12.102,11.108 12.092,11.097 12.082,11.097 12.082,11.135 12.092,11.162 12.102,11.215 12.121,11.247 12.131,11.279 12.248,11.578 12.278,11.615 12.288,11.641 12.297,11.699 12.297,11.768 12.278,11.905 12.268,11.994 12.268,11.989 12.268,11.978 12.248,12.02 12.229,12.057 12.219,12.114 12.209,12.145 12.18,12.177 12.16,12.171 12.112,12.197 12.072,12.192 12.033,12.203 12.004,12.203 11.994,12.177 11.994,12.161 11.994,12.151 12.014,12.145 12.043,12.177 12.053,12.166 12.043,12.151 12.024,12.14 12.004,12.135 11.975,12.067 11.945,12.025 11.936,11.994 11.877,11.973 11.838,11.947 11.818,11.899 11.799,11.81 11.779,11.799 11.779,11.794 11.789,11.763 11.808,11.736 11.799,11.741 11.789,11.752 11.769,11.773 11.76,11.778 11.75,11.773 11.74,11.731 11.75,11.673 11.76,11.652 11.74,11.652 11.711,11.657 11.72,11.678 11.711,11.689 11.701,11.683 11.681,11.678 11.672,11.657 11.642,11.62 11.593,11.514 11.584,11.503 11.574,11.487 11.574,11.482 11.593,11.477 11.623,11.429 11.642,11.402 11.652,11.381 11.652,11.376 11.642,11.365 11.632,11.376 11.623,11.37 11.603,11.343 11.593,11.338 11.584,11.343 11.593,11.365 11.603,11.37 11.593,11.402 11.593,11.413 11.584,11.418 11.574,11.413 11.564,11.423 11.554,11.413 11.544,11.402 11.535,11.381 11.564,11.258 11.584,11.183 11.584,11.097 11.593,11.081 11.584,11.059 11.554,11.005 11.417,10.881 11.3,10.735 11.212,10.68 11.134,10.691 11.124,10.702 11.114,10.718 11.124,10.735 11.114,10.74 11.095,10.74 11.075,10.746 11.007,10.784 10.977,10.784 10.958,10.789 10.938,10.8 10.899,10.805 10.86,10.811 10.85,10.805 10.84,10.784 10.84,10.762 10.84,10.778 10.86,10.794 10.86,10.789 10.87,10.773 10.85,10.751 10.811,10.718 10.762,10.675 10.782,10.675 10.782,10.664 10.772,10.653 10.772,10.637 10.782,10.62 10.762,10.626 10.752,10.637 10.743,10.647 10.743,10.658 10.733,10.658 10.713,10.642 10.625,10.609 10.557,10.587 10.616,10.576 10.645,10.582 10.645,10.571 10.635,10.566 10.606,10.555 10.576,10.56 10.557,10.555 10.537,10.566 10.518,10.576 10.488,10.587 10.41,10.593 10.352,10.604 10.361,10.593 10.371,10.587 10.41,10.576 10.42,10.555 10.41,10.533 10.4,10.538 10.391,10.555 10.371,10.544 10.361,10.544 10.352,10.571 10.342,10.587 10.332,10.604 10.273,10.62 10.273,10.615 10.283,10.598 10.283,10.587 10.264,10.598 10.234,10.631 10.136,10.637 10.136,10.631 10.156,10.631 10.195,10.62 10.185,10.604 10.176,10.582 10.166,10.582 10.156,10.571 10.156,10.533 10.146,10.516 10.127,10.494 10.127,10.5 10.117,10.533 10.107,10.582 10.097,10.598 10.068,10.598 10.039,10.593 9.951,10.598 9.912,10.582 9.902,10.582 9.892,10.582 9.853,10.598 9.804,10.609 9.794,10.604 9.775,10.604 9.745,10.642 9.706,10.658 9.608,10.626 9.579,10.604 9.56,10.593 9.53,10.593 9.501,10.626 9.481,10.669 9.511,10.691 9.54,10.702 9.589,10.691 9.618,10.675 9.638,10.675 9.657,10.669 9.667,10.658 9.677,10.664 9.687,10.675 9.667,10.686 9.648,10.697 9.638,10.707 9.657,10.735 9.687,10.74 9.706,10.74 9.706,10.713 9.726,10.691 9.755,10.697 9.755,10.707 9.755,10.718 9.765,10.735 9.765,10.762 9.765,10.767 9.736,10.778 9.716,10.784 9.706,10.8 9.706,10.805 9.696,10.816 9.687,10.811 9.677,10.811 9.677,10.822 9.667,10.832 9.677,10.854 9.706,10.87 9.726,10.892 9.794,10.919 9.814,10.919 9.833,10.946 9.843,10.957 9.863,10.962 9.853,10.978 9.833,10.995 9.824,11.011 9.824,11.016 9.814,11.005 9.794,11 9.775,11.022 9.765,11.027 9.765,11 9.755,10.989 9.745,10.962 9.726,10.946 9.706,10.941 9.696,10.93 9.677,10.924 9.667,10.924 9.648,10.919 9.648,10.903 9.638,10.892 9.628,10.881 9.55,10.854 9.55,10.865 9.55,10.876 9.56,10.881 9.579,10.892 9.579,10.919 9.569,10.93 9.569,10.951 9.56,10.968 9.55,10.984 9.53,10.989 9.52,10.984 9.511,10.946 9.491,10.93 9.452,10.93 9.432,10.941 9.403,10.978 9.384,10.984 9.315,10.962 9.237,10.935 9.247,10.924 9.256,10.919 9.276,10.924 9.276,10.914 9.256,10.881 9.247,10.865 9.256,10.849 9.247,10.849 9.227,10.865 9.178,10.849 9.168,10.832 9.139,10.789 9.1,10.789 9.08,10.762 9.041,10.773 9.022,10.789 9.012,10.805 9.022,10.816 9.032,10.832 9.022,10.838 8.973,10.849 8.865,10.838 8.836,10.827 8.787,10.8 8.728,10.778 8.699,10.778 8.67,10.784 8.592,10.784 8.572,10.789 8.552,10.8 8.543,10.789 8.533,10.773 8.543,10.767 8.552,10.756 8.562,10.74 8.572,10.729 8.562,10.718 8.552,10.718 8.523,10.767 8.533,10.8 8.533,10.811 8.474,10.816 8.347,10.87 8.298,10.903 8.298,10.892 8.367,10.854 8.337,10.849 8.308,10.86 8.298,10.854 8.308,10.822 8.308,10.789 8.279,10.789 8.259,10.811 8.249,10.811 8.24,10.8 8.23,10.805 8.24,10.86 8.249,10.881 8.259,10.908 8.23,10.941 8.2,10.973 8.191,11 8.161,11.032 8.132,11.054 8.054,11.102 8.034,11.113 8.005,11.135 7.956,11.151 7.917,11.178 7.897,11.183 7.927,11.162 7.956,11.14 7.927,11.14 7.888,11.129 7.858,11.129 7.858,11.14 7.839,11.151 7.819,11.135 7.809,11.124 7.809,11.113 7.8,11.108 7.79,11.113 7.819,11.183 7.829,11.183 7.848,11.194 7.829,11.21 7.809,11.22 7.78,11.226 7.751,11.204 7.751,11.231 7.741,11.263 7.731,11.274 7.721,11.285 7.712,11.274 7.712,11.263 7.702,11.274 7.682,11.285 7.663,11.285 7.643,11.29 7.653,11.301 7.653,11.311 7.682,11.306 7.672,11.338 7.643,11.37 7.624,11.376 7.584,11.37 7.584,11.376 7.575,11.381 7.614,11.434 7.584,11.509 7.575,11.54 7.555,11.54 7.545,11.54 7.506,11.519 7.477,11.498 7.506,11.551 7.555,11.567 7.565,11.588 7.565,11.604 7.545,11.62 7.536,11.646 7.545,11.668 7.555,11.71 7.565,11.731 7.575,11.794 7.584,11.821 7.633,11.92 7.653,11.92 7.653,11.931 7.653,11.952 7.614,11.962 7.594,11.968 7.594,11.978 7.594,11.983 7.584,11.983 7.575,11.973 7.536,11.947 7.477,11.931 7.399,11.92 7.34,11.91 7.32,11.889 7.291,11.873 7.252,11.868 7.232,11.857 7.213,11.842 7.184,11.826 7.144,11.821 7.115,11.805 7.096,11.773 7.086,11.71 7.066,11.673 7.027,11.625 7.027,11.62 7.027,11.615 7.027,11.588 7.027,11.567 7.008,11.551 7.008,11.535 7.017,11.519 7.017,11.498 7.008,11.471 6.988,11.445 6.939,11.418 6.91,11.376 6.871,11.317 6.841,11.279 6.812,11.258 6.792,11.231 6.783,11.199 6.783,11.183 6.783,11.178 6.763,11.145 6.724,11.081 6.704,11.032 6.695,11 6.675,10.968 6.626,10.924 6.597,10.897 6.597,10.881 6.519,10.827 6.499,10.794 6.48,10.784 6.47,10.784 6.46,10.778 6.46,10.773 6.45,10.773 6.44,10.778 6.401,10.778 6.333,10.778 6.284,10.767 6.255,10.751 6.235,10.756 6.225,10.773 6.206,10.784 6.167,10.789 6.137,10.822 6.108,10.887 6.098,10.924 6.098,10.941 6.088,10.957 6.069,10.962 6.059,10.984 6.04,11.011 6.02,11.022 5.991,11.022 5.942,11 5.883,10.957 5.824,10.935 5.795,10.924 5.756,10.903 5.727,10.876 5.707,10.854 5.678,10.843 5.648,10.811 5.619,10.756 5.6,10.713 5.6,10.669 5.56,10.571 5.541,10.527 5.521,10.511 5.492,10.483 5.443,10.456 5.375,10.401 5.296,10.318 5.238,10.269 5.208,10.252 5.179,10.225 5.15,10.18 5.13,10.153 5.12,10.153 5.062,10.153 5.003,10.153 4.944,10.153 4.886,10.153 4.827,10.147 4.768,10.147 4.71,10.147 4.641,10.147 4.641,10.186 4.641,10.219 4.641,10.258 4.641,10.291 4.553,10.291 4.456,10.291 4.358,10.291 4.26,10.291 4.162,10.291 4.064,10.291 3.976,10.291 3.879,10.291 3.752,10.247 3.615,10.197 3.488,10.153 3.361,10.103 3.233,10.058 3.106,10.008 2.979,9.963 2.842,9.913 2.862,9.896 2.881,9.846 2.842,9.852 2.764,9.857 2.686,9.863 2.617,9.874 2.539,9.88 2.461,9.885 2.383,9.891 2.305,9.902 2.226,9.908 2.226,9.902 2.226,9.868 2.207,9.857 2.197,9.863 2.187,9.818 2.187,9.795 2.187,9.773 2.168,9.722 2.129,9.66 2.041,9.581 2.001,9.553 1.962,9.519 1.943,9.513 1.913,9.508 1.904,9.525 1.874,9.513 1.884,9.479 1.845,9.423 1.825,9.417 1.757,9.423 1.679,9.394 1.649,9.377 1.64,9.348 1.601,9.32 1.552,9.291 1.522,9.297 1.483,9.297 1.434,9.274 1.395,9.274 1.337,9.28 1.317,9.274 1.288,9.251 1.268,9.24 1.278,9.211 1.268,9.183 1.278,9.165 1.268,9.119 1.268,9.073 1.268,9.062 1.249,9.05 1.209,9.033 1.2,9.01 1.209,8.981 1.2,8.958 1.17,8.941 1.131,8.9 1.092,8.877 1.082,8.836 1.053,8.813 1.043,8.79 0.994,8.714 0.936,8.655 0.926,8.62 0.926,8.573 0.945,8.544 0.955,8.52 0.955,8.497 0.955,8.479 0.936,8.45 0.857,8.432 0.789,8.361 0.789,8.302 0.769,8.242 0.769,8.207 0.76,8.165 0.779,8.159 0.799,8.159 0.799,8.177 0.799,8.207 0.818,8.225 0.838,8.236 0.857,8.26 0.867,8.266 0.877,8.266 0.877,8.254 0.867,8.242 0.857,8.213 0.838,8.177 0.818,8.159 0.809,8.123 0.799,8.117 0.799,8.099 0.818,8.087 0.838,8.075 0.877,8.069 0.975,8.075 1.004,8.063 1.014,8.069 1.033,8.069 1.004,8.057 0.985,8.063 0.965,8.057 0.936,8.063 0.916,8.057 0.906,8.045 0.897,8.045 0.857,8.063 0.848,8.063 0.809,8.039 0.799,8.039 0.769,8.051 0.769,8.105 0.769,8.141 0.76,8.147 0.74,8.129 0.721,8.123 0.691,8.105 0.662,8.075 0.652,8.069 0.633,8.093 0.633,8.081 0.642,8.051 0.633,8.009 0.662,8.045 0.652,8.021 0.633,7.991 0.613,7.979 0.593,7.931 0.554,7.901 0.515,7.853 0.437,7.774 0.437,7.701 0.408,7.61 0.417,7.561 0.417,7.525 0.408,7.469 0.388,7.439 0.329,7.353 0.271,7.297 0.261,7.254 0.261,7.211 0.271,7.173 0.281,7.136 0.29,7.124 0.29,7.13 0.29,7.136 0.3,7.142 0.3,7.124 0.31,7.111 0.3,7.111 0.3,7.105 0.3,7.092 0.32,7.043 0.32,6.974 0.339,6.892 0.339,6.867 0.329,6.804 0.31,6.773 0.29,6.747 0.3,6.709 0.3,6.671 0.261,6.62 0.251,6.557 0.241,6.531 0.251,6.455 0.241,6.423 0.212,6.371 0.222,6.326 0.232,6.294 0.261,6.171 0.271,6.165 0.281,6.165 0.3,6.145 0.29,6.139 0.281,6.145 0.29,6.1 0.31,6.054 0.32,6.041 0.32,5.904 0.329,5.799 0.349,5.766 0.339,5.726 0.349,5.68 0.339,5.633 0.369,5.393 0.369,5.359 0.378,5.326 0.369,5.218 0.369,5.102 0.369,5.089 0.359,5.075 0.369,5.068 0.378,5.089 0.447,5.089 0.486,5.068 0.505,5.075 0.525,5.095 0.545,5.102 0.574,5.095 0.564,5.095 0.545,5.089 0.515,5.068 0.505,5.054 0.457,5.054 0.447,5.041 0.388,5.054 0.369,5.041 0.339,5.048 0.349,5.014 0.349,4.966 0.349,4.918 0.349,4.952 0.369,4.986 0.378,4.945 0.388,4.897 0.369,4.876 0.339,4.863 0.329,4.814 0.398,4.78 0.359,4.766 0.349,4.752 0.329,4.752 0.329,4.766 0.32,4.78 0.31,4.759 0.31,4.732 0.3,4.683 0.271,4.6 0.251,4.502 0.232,4.446 0.193,4.404 0.173,4.369 0.163,4.298 0.173,4.248 0.163,4.206 0.183,4.206 0.241,4.241 0.31,4.263 0.329,4.277 0.369,4.291 0.545,4.312 0.564,4.312 0.584,4.298 0.593,4.298 0.623,4.326 0.633,4.333 0.652,4.333 0.672,4.326 0.691,4.305 0.691,4.312 0.691,4.333 0.701,4.354 0.721,4.39 0.721,4.411 0.691,4.467 0.681,4.467 0.681,4.446 0.613,4.544 0.593,4.586 0.593,4.607 0.593,4.621 0.603,4.627 0.623,4.621 0.652,4.6 0.623,4.6 0.613,4.607 0.613,4.579 0.613,4.572 0.633,4.537 0.652,4.523 0.681,4.502 0.691,4.481 0.711,4.46 0.74,4.425 0.74,4.418 0.74,4.397 0.74,4.39 0.76,4.397 0.76,4.439 0.76,4.453 0.73,4.481 0.73,4.488 0.73,4.516 0.73,4.523 0.721,4.516 0.74,4.551 0.75,4.579 0.75,4.6 0.74,4.648 0.74,4.655 0.721,4.648 0.711,4.634 0.701,4.641 0.691,4.676 0.681,4.634 0.672,4.627 0.652,4.648 0.642,4.662 0.633,4.697 0.623,4.711 0.652,4.711 0.681,4.704 0.701,4.718 0.711,4.718 0.73,4.704 0.74,4.697 0.75,4.655 0.76,4.648 0.779,4.648 0.789,4.641 0.809,4.614 0.809,4.607 0.799,4.551 0.799,4.523 0.799,4.509 0.789,4.502 0.789,4.495 0.799,4.474 0.799,4.46 0.789,4.446 0.799,4.432 0.809,4.404 0.818,4.39 0.838,4.354 0.828,4.347 0.818,4.326 0.809,4.312 0.799,4.291 0.789,4.284 0.789,4.291 0.799,4.326 0.789,4.326 0.769,4.305 0.76,4.298 0.76,4.284 0.76,4.27 0.769,4.256 0.789,4.248 0.789,4.241 0.769,4.206 0.75,4.192 0.74,4.185 0.73,4.185 0.721,4.177 0.721,4.17 0.721,4.163 0.73,4.156 0.75,4.163 0.769,4.156 0.769,4.142 0.76,4.135 0.76,4.085 0.75,4.049 0.75,4.042 0.74,4.042 0.74,4.049 0.721,4.049 0.711,4.035 0.701,4.013 0.691,3.956 0.711,3.956 0.828,3.956 0.945,3.956 1.063,3.956 1.18,3.956 1.297,3.956 1.405,3.956 1.522,3.956 1.64,3.956 1.757,3.956 1.874,3.956 1.992,3.956 2.099,3.956 2.217,3.956 2.334,3.956 2.451,3.956 2.569,3.956 2.686,3.956 2.803,3.956 2.911,3.956 3.028,3.956 3.145,3.956 3.263,3.956 3.38,3.956 3.497,3.956 3.605,3.956 3.722,3.956 3.84,3.956 3.957,3.956 4.074,3.956 4.192,3.956 4.309,3.956 4.416,3.956 4.534,3.956 4.651,3.956 4.768,3.956 4.886,3.956 5.003,3.956 5.111,3.956 5.228,3.956 5.345,3.956 5.463,3.956 5.58,3.956 5.697,3.956 5.805,3.956 5.922,3.956 6.04,3.956 6.157,3.956 6.274,3.956 6.392,3.956 6.509,3.956 6.616,3.956 6.734,3.956 6.851,3.956 6.968,3.956 7.086,3.956 7.203,3.956 7.311,3.956 7.428,3.956 7.545,3.956 7.663,3.956 7.78,3.956 7.897,3.956 8.005,3.956 8.122,3.956 8.191,3.956 8.191,3.87 8.191,3.797 8.249,3.805 8.269,3.819 8.269,3.826 8.269,3.841 8.279,3.906 8.288,3.949 8.308,4.006 8.318,4.028 8.318,4.042 8.337,4.056 8.396,4.071 8.494,4.092 8.543,4.113 8.562,4.135 8.582,4.149 8.621,4.142 8.65,4.135 8.67,4.106 8.709,4.106 8.738,4.106 8.758,4.106 8.777,4.113 8.816,4.128 8.846,4.142 8.895,4.17 8.914,4.185 8.924,4.213 8.934,4.248 8.953,4.248 8.963,4.227 9.002,4.22 9.051,4.241 9.09,4.284 9.139,4.319 9.178,4.34 9.217,4.34 9.256,4.319 9.305,4.284 9.344,4.277 9.364,4.277 9.374,4.305 9.393,4.319 9.423,4.312 9.501,4.319 9.569,4.312 9.579,4.326 9.589,4.354 9.618,4.361 9.648,4.354 9.716,4.361 9.736,4.361 9.784,4.354 9.814,4.34 9.843,4.326 9.892,4.298 9.97,4.256 10.029,4.241 10.088,4.27 10.136,4.298 10.156,4.305 10.205,4.333 10.273,4.376 10.352,4.425 10.43,4.467 10.498,4.509 10.547,4.537 10.557,4.544 10.616,4.579 10.664,4.614 10.723,4.641 10.772,4.676 10.821,4.711 10.88,4.738 10.928,4.773 10.987,4.801 10.997,4.856 11.007,4.904 11.036,4.945 11.065,4.979 11.085,4.979 11.104,4.959 11.114,4.952 11.134,4.952 11.173,4.945 11.183,4.945 11.183,4.952 11.183,4.959 11.183,4.966 11.183,4.986 11.192,5.014 11.192,5.048 11.192,5.068 11.212,5.102 11.232,5.123 11.241,5.129 11.28,5.116 11.31,5.109 11.329,5.109 11.349,5.136 11.359,5.15 11.368,5.157 11.329,5.231 11.388,5.265 11.447,5.299 11.515,5.346 11.554,5.373 11.613,5.413 11.623,5.467 11.632,5.513 11.642,5.58 11.652,5.646 11.662,5.706 11.672,5.779 11.691,5.851 11.701,5.917 11.711,5.995 11.73,6.087 11.711,6.126 11.681,6.203 11.652,6.275 11.652,6.294 11.632,6.397 11.613,6.442 11.593,6.461 11.564,6.487 11.525,6.525 11.496,6.544 11.476,6.557 11.466,6.576 11.456,6.614 11.456,6.678 11.486,6.728 11.525,6.76 11.574,6.785 11.642,6.785 11.711,6.747 11.769,6.709 11.828,6.671 11.896,6.633 11.965,6.595 12.024,6.576 12.121,6.557 12.239,6.531 12.297,6.506 12.376,6.474 12.454,6.429 12.532,6.39 12.571,6.371 12.591,6.352 12.6,6.333 12.6,6.326 12.591,6.313 12.581,6.307 12.571,6.3 12.571,6.294 12.571,6.275 12.561,6.268 12.561,6.262 12.561,6.197 12.552,6.178 12.532,6.126 12.581,6.106 12.62,6.08 12.659,6.067 12.727,6.067 12.796,6.067 12.884,6.067 12.962,6.067 13.05,6.067 13.099,6.067 13.167,6.067 13.207,6.008 13.236,5.956 13.265,5.904 13.324,5.845 13.343,5.831 13.353,5.812 13.392,5.785 13.431,5.766 13.441,5.746 13.451,5.739 13.559,5.633 13.617,5.587 13.666,5.553 13.705,5.547 13.725,5.547 13.744,5.547 13.754,5.547 13.823,5.547 13.93,5.547 14.047,5.54 14.155,5.54 "
       id="polygon13"
       style="fill:none;stroke:url(#SVGID_1_);stroke-width:0.1036;stroke-miterlimit:10" /><g
       id="g15"><circle
         cx="2.664"
         cy="7.8130002"
         r="0.58899999"
         id="circle17"
         style="fill:#ed1b36" /><circle
         cx="7.9330001"
         cy="7.224"
         r="1.097"
         id="circle19"
         style="fill:#ed1b36" /><circle
         cx="10.357"
         cy="9.4530001"
         r="0.57700002"
         id="circle21"
         style="fill:#ed1b36" /></g></g></svg>
